<svg xmlns="http://www.w3.org/2000/svg" width="1706.7" height="1706.7" version="1.0" viewBox="0 0 1280 1280"><path d="M154.5 1.6a86 86 0 0 0-24.3 9.5C123.3 15.2 21.3 116 14.5 125.5a68.3 68.3 0 0 0-14 44A71 71 0 0 0 13 212.2c2.9 4.3 70.5 72.6 214.9 217L438.5 640 227.4 851.2C91.8 987 15 1064.5 12.7 1068.1A69.4 69.4 0 0 0 .6 1110a68.1 68.1 0 0 0 13.9 44.5c6.8 9.5 108.8 110.3 115.7 114.4a77 77 0 0 0 85.3-4.2c2.2-1.7 98.6-97.6 214.3-213.1L640 841.5l210.3 210.1c115.6 115.5 212 211.4 214.2 213.1 6.9 5.1 13 8.2 22.4 11.3 20.8 7 43.1 4.4 62.9-7.1 6.9-4.1 108.9-104.9 115.7-114.4a68.3 68.3 0 0 0 14-44c0-16.6-3.6-29-12.1-42.2-2.5-3.9-74.6-76.7-214.8-217.1L841.5 640l210.7-210.8c220.7-220.8 216.2-216.1 221.9-230.3a76.5 76.5 0 0 0 .4-57.2c-5.3-13.2-7.4-15.7-61.5-70a1655.5 1655.5 0 0 0-58.5-57.2 68.3 68.3 0 0 0-44-14 71.3 71.3 0 0 0-42 12c-4.1 2.6-72.4 70.2-217.2 214.9L640 438.5 428.8 227.4C283.4 82.2 215.6 15.1 211.5 12.4a90.6 90.6 0 0 0-23-10.1 94.7 94.7 0 0 0-34-.7z"/></svg>